<?xml version="1.0" encoding="utf-8"?>
<!-- Generator: Adobe Illustrator 23.0.1, SVG Export Plug-In . SVG Version: 6.00 Build 0)  -->
<svg version="1.1" xmlns="http://www.w3.org/2000/svg" xmlns:xlink="http://www.w3.org/1999/xlink" x="0px" y="0px"
	 viewBox="0 0 500 500" style="enable-background:new 0 0 500 500;" xml:space="preserve">
<style type="text/css">
	.st0{fill:#603FD7;}
	.st1{opacity:0.64;fill:#603FD7;}
	.st2{opacity:0.51;fill:#983AC7;}
	.st3{opacity:0.61;fill:#983AC7;}
	.st4{fill:#FFFFFF;}
	.st5{fill:#983AC7;}
</style>
<g id="Camada_1">
	<circle class="st0" cx="250" cy="250" r="250"/>
	<ellipse class="st1" cx="239.5" cy="238" rx="233.5" ry="235"/>
	<ellipse class="st2" cx="259" cy="223.5" rx="233" ry="216.5"/>
	<circle class="st2" cx="228.5" cy="274.5" r="216.5"/>
	<circle class="st3" cx="268" cy="268" r="224"/>
</g>
<g id="Camada_2">
	<circle class="st4" cx="250" cy="250" r="175"/>
	<g>
		<path class="st5" d="M243.9,172.4v-16c0-3.2,2.3-6,5.5-6.4c3.8-0.4,7,2.5,7,6.2v16.3c0,3.7-3.2,6.6-7,6.2
			C246.3,178.4,243.9,175.6,243.9,172.4z"/>
		<path class="st5" d="M304.8,201.5c-1.6,0-3.2-0.6-4.4-1.8c-2.4-2.4-2.4-6.4,0-8.8l11.5-11.5c2.4-2.4,6.4-2.4,8.8,0s2.4,6.4,0,8.8
			l-11.5,11.5C308,200.9,306.4,201.5,304.8,201.5z"/>
		<path class="st5" d="M343.8,256.2h-16.1c-3.2,0-6-2.3-6.4-5.5c-0.4-3.8,2.5-7,6.2-7h16.1c3.2,0,6,2.3,6.4,5.5
			C350.4,253,347.4,256.2,343.8,256.2z"/>
		<path class="st5" d="M316.3,322.6c-1.6,0-3.2-0.6-4.4-1.8l-11.5-11.5c-2.4-2.4-2.4-6.4,0-8.8c2.4-2.4,6.4-2.4,8.8,0l11.5,11.5
			c2.4,2.4,2.4,6.4,0,8.8C319.5,322,317.9,322.6,316.3,322.6z"/>
		<path class="st5" d="M183.7,322.6c-1.6,0-3.2-0.6-4.4-1.8c-2.4-2.4-2.4-6.4,0-8.8l11.5-11.5c2.4-2.4,6.4-2.4,8.8,0
			c2.4,2.4,2.4,6.4,0,8.8l-11.5,11.5C186.9,322,185.3,322.6,183.7,322.6z"/>
		<path class="st5" d="M172.6,256.2h-16.1c-3.2,0-6-2.3-6.4-5.5c-0.4-3.8,2.5-7,6.2-7h16.1c3.2,0,6,2.3,6.4,5.5
			C179.2,253,176.2,256.2,172.6,256.2z"/>
		<path class="st5" d="M195.2,201.5c-1.6,0-3.2-0.6-4.4-1.8l-11.5-11.5c-2.4-2.4-2.4-6.4,0-8.8s6.4-2.4,8.8,0l11.5,11.5
			c2.4,2.4,2.4,6.4,0,8.8C198.4,200.9,196.8,201.5,195.2,201.5z"/>
		<path class="st5" d="M275.2,325v10.4c0,8-6.6,14.6-14.6,14.6h-20.8c-7,0-14.6-5.3-14.6-17v-8H275.2z"/>
		<path class="st5" d="M286.9,204.6c-13.7-11.1-31.8-15.4-49.4-11.7c-22.2,4.6-40.1,22.6-44.7,44.7c-4.7,22.7,3.8,45.2,22.1,58.9
			c4.9,3.7,8.4,9.3,9.5,15.9v0.1c0.2-0.1,0.4-0.1,0.6-0.1h50.2c0.2,0,0.3,0,0.4,0.1v-0.1c1.2-6.3,4.9-12.2,10.7-16.7
			c14.1-11.2,22.3-27.8,22.3-45.8C308.6,232.3,300.7,215.8,286.9,204.6z M281.3,254.2c-3.4,0-6.3-2.8-6.3-6.3
			c0-12.7-10.3-22.9-22.9-22.9c-3.4,0-6.3-2.8-6.3-6.3c0-3.4,2.8-6.3,6.3-6.3c19.5,0,35.4,15.9,35.4,35.4
			C287.5,251.3,284.7,254.2,281.3,254.2z"/>
		<path class="st5" d="M224.4,312.5h0.6C224.8,312.5,224.5,312.5,224.4,312.5L224.4,312.5z"/>
		<path class="st5" d="M275.6,312.5L275.6,312.5c-0.2,0-0.3,0-0.4,0H275.6z"/>
	</g>
</g>
</svg>
